<svg width="30" height="30" viewBox="0 0 30 30" fill="none" xmlns="http://www.w3.org/2000/svg">
<rect width="30" height="30" rx="15" fill="#1C1C1C"/>
<path d="M21.9225 8.74659C20.6558 8.16549 19.2844 7.74373 17.8557 7.50004C17.8432 7.49965 17.8308 7.50196 17.8192 7.50682C17.8077 7.51168 17.7974 7.51896 17.7891 7.52816C17.6176 7.83746 17.4176 8.24047 17.2843 8.54977C15.769 8.32483 14.228 8.32483 12.7127 8.54977C12.5794 8.2311 12.3794 7.83746 12.1984 7.52816C12.1889 7.50942 12.1604 7.50004 12.1318 7.50004C10.7032 7.74373 9.34123 8.16549 8.065 8.74659C8.05548 8.74659 8.04595 8.75596 8.03643 8.76534C5.44588 12.58 4.73158 16.2915 5.08397 19.9655C5.08397 19.9843 5.09349 20.003 5.11254 20.0124C6.82687 21.2496 8.47454 21.9994 10.1032 22.4961C10.1317 22.5055 10.1603 22.4961 10.1698 22.4774C10.5508 21.9619 10.8937 21.4183 11.1889 20.8465C11.2079 20.8091 11.1889 20.7716 11.1508 20.7622C10.6079 20.556 10.0936 20.3123 9.58885 20.0311C9.55076 20.0124 9.55076 19.9562 9.57933 19.928C9.68409 19.8531 9.78886 19.7687 9.89362 19.6937C9.91267 19.675 9.94124 19.675 9.96029 19.6844C13.2366 21.1558 16.77 21.1558 20.0082 19.6844C20.0272 19.675 20.0558 19.675 20.0749 19.6937C20.1796 19.7781 20.2844 19.8531 20.3891 19.9374C20.4272 19.9655 20.4272 20.0218 20.3796 20.0405C19.8844 20.3311 19.3606 20.5654 18.8177 20.7716C18.7796 20.7809 18.7701 20.8278 18.7796 20.8559C19.0844 21.4276 19.4272 21.9713 19.7987 22.4867C19.8272 22.4961 19.8558 22.5055 19.8844 22.4961C21.5225 21.9994 23.1702 21.2496 24.8845 20.0124C24.9036 20.003 24.9131 19.9843 24.9131 19.9655C25.3321 15.7198 24.2178 12.0364 21.9606 8.76534C21.9511 8.75596 21.9416 8.74659 21.9225 8.74659ZM11.6841 17.7255C10.7032 17.7255 9.8841 16.8351 9.8841 15.7385C9.8841 14.6419 10.6841 13.7515 11.6841 13.7515C12.6937 13.7515 13.4937 14.6513 13.4842 15.7385C13.4842 16.8351 12.6842 17.7255 11.6841 17.7255ZM18.3224 17.7255C17.3414 17.7255 16.5224 16.8351 16.5224 15.7385C16.5224 14.6419 17.3224 13.7515 18.3224 13.7515C19.332 13.7515 20.132 14.6513 20.1225 15.7385C20.1225 16.8351 19.332 17.7255 18.3224 17.7255Z" fill="#F2F2F2"/>
</svg>
