<svg width="30" height="30" viewBox="0 0 30 30" fill="none" xmlns="http://www.w3.org/2000/svg">
<rect width="30" height="30" rx="15" fill="#1C1C1C"/>
<path fill-rule="evenodd" clip-rule="evenodd" d="M15 7.5C15.7837 7.5 16.5877 7.52063 17.3668 7.55438L18.2872 7.59937L19.1681 7.65281L19.9931 7.71L20.7466 7.77C21.5643 7.83401 22.3337 8.19089 22.9196 8.77785C23.5054 9.36481 23.8701 10.1443 23.9494 10.9791L23.9861 11.3775L24.0548 12.2306C24.119 13.1147 24.1667 14.0784 24.1667 15C24.1667 15.9216 24.119 16.8853 24.0548 17.7694L23.9861 18.6225C23.9742 18.7594 23.9622 18.8916 23.9494 19.0209C23.87 19.8559 23.5052 20.6355 22.9192 21.2224C22.3332 21.8094 21.5635 22.1662 20.7457 22.23L19.994 22.2891L19.169 22.3472L18.2872 22.4006L17.3668 22.4456C16.5783 22.4807 15.7892 22.4988 15 22.5C14.2108 22.4988 13.4216 22.4807 12.6332 22.4456L11.7128 22.4006L10.8319 22.3472L10.0069 22.2891L9.25341 22.23C8.4357 22.166 7.66625 21.8091 7.08043 21.2222C6.49461 20.6352 6.12994 19.8557 6.05058 19.0209L6.01391 18.6225L5.94516 17.7694C5.87507 16.8479 5.83777 15.9242 5.83333 15C5.83333 14.0784 5.88099 13.1147 5.94516 12.2306L6.01391 11.3775C6.02583 11.2406 6.03774 11.1084 6.05058 10.9791C6.12991 10.1444 6.49444 9.36508 7.08008 8.77813C7.66571 8.19119 8.43495 7.83422 9.2525 7.77L10.0051 7.71L10.8301 7.65281L11.7119 7.59937L12.6322 7.55438C13.421 7.51934 14.2105 7.50121 15 7.5ZM13.1667 12.7266V17.2734C13.1667 17.7066 13.625 17.9766 13.9917 17.7609L17.8417 15.4875C17.9254 15.4382 17.995 15.3671 18.0434 15.2816C18.0918 15.196 18.1173 15.0989 18.1173 15C18.1173 14.9011 18.0918 14.804 18.0434 14.7184C17.995 14.6329 17.9254 14.5618 17.8417 14.5125L13.9917 12.24C13.908 12.1906 13.8131 12.1646 13.7166 12.1646C13.62 12.1647 13.5251 12.1907 13.4415 12.2401C13.3579 12.2895 13.2885 12.3606 13.2402 12.4461C13.192 12.5317 13.1666 12.6287 13.1667 12.7275V12.7266Z" fill="white"/>
</svg>
